# xmcd
#
# Track frame offsets:
#	150
#	14217
#	29894
#	47535
#	59900
#	78023
#	90023
#	107192
#	121556
#	132857
#	152093
#	163169
#
# Disc length: 2596 seconds
#
# Revision: 1
# Processed by: cddbd v1.5.2PL0 Copyright (c) Steve Scherf et al.
# Submitted via: audiograbber 1.80
#
DISCID=970a220c
DTITLE=The Good, The Bad and The Queen - The Good, The Bad and The Queen
DYEAR=1900
DGENRE=
TTITLE0=History Song
TTITLE1=80's Life
TTITLE2=Northern Whale
TTITLE3=Kingdom Of Doom
TTITLE4=Herculean
TTITLE5=Behind The Sun
TTITLE6=The Bunting Song
TTITLE7=Nature Springs
TTITLE8=A Soldier's Tale
TTITLE9=Three Changes
TTITLE10=Green Fields
TTITLE11=The Good, The Bad and The Queen
EXTD=
EXTT0=
EXTT1=
EXTT2=
EXTT3=
EXTT4=
EXTT5=
EXTT6=
EXTT7=
EXTT8=
EXTT9=
EXTT10=
EXTT11=
PLAYORDER=
